<svg width="100" height="100" viewBox="0 0 100 100" fill="none" xmlns="http://www.w3.org/2000/svg">
<path d="M50 0C22.3865 0 0 22.3865 0 50C0 73.6097 16.3692 93.3846 38.3751 98.6269C37.2366 98.3557 36.1077 98.052 35 97.7057V86.25C35 86.25 33.1249 86.8749 30.6249 86.8749C23.6308 86.8749 20.725 80.6346 20 77.5C19.5596 75.5903 18.4096 73.7809 17.175 72.6751C15.7 71.3597 15.0096 71.3557 15 70.9057C14.9808 69.9614 16.2654 70 16.875 70C20 70 22.3692 73.3249 23.4692 75.0443C26.1942 79.2886 29.1191 80 30.6249 80C32.5 80 34.1191 79.7191 35.2346 79.1809C35.75 75.55 37.3654 72.3154 40 70C28.275 67.6557 20 60.9309 20 50C20 44.3691 22.2596 39.1943 26.025 35.0154C25.6404 33.9251 25 31.7191 25 28.125C25 25.75 25.1654 22.8346 26.25 20C26.25 20 33.3809 20.05 40.1057 26.4192C43.2097 25.5154 46.5309 25 50 25C53.4691 25 56.7903 25.5154 59.8943 26.4192C66.6191 20.05 73.75 20 73.75 20C74.8403 22.8346 75 25.75 75 28.125C75 32 74.4846 34.2597 74.1691 35.2346C77.8191 39.3751 80 44.4691 80 50C80 60.9309 71.7251 67.6557 60 70C63.1309 72.75 65 76.7557 65 81.25V97.7057C63.8923 98.0537 62.7654 98.3557 61.6249 98.6269C83.6309 93.3846 100 73.6097 100 50C100 22.3865 77.6134 0 50 0Z" fill="#F1E8DE"/>
</svg>
