<svg width="100" height="100" viewBox="0 0 100 100" fill="none" xmlns="http://www.w3.org/2000/svg">
<path d="M29.5454 0C13.25 0 0 13.25 0 29.5454V70.4546C0 86.75 13.25 100 29.5454 100H70.4546C86.75 100 100 86.75 100 70.4546V29.5454C100 13.25 86.75 0 70.4546 0H29.5454ZM77.2729 18.1818C79.7729 18.1818 81.8183 20.2273 81.8183 22.7273C81.8183 25.2273 79.7729 27.2727 77.2729 27.2727C74.7729 27.2727 72.7271 25.2273 72.7271 22.7273C72.7271 20.2273 74.7729 18.1818 77.2729 18.1818ZM50 25C63.7954 25 75 36.2046 75 50C75 63.7954 63.7954 75 50 75C36.2046 75 25 63.7954 25 50C25 36.2046 36.2046 25 50 25ZM50 29.5454C38.7271 29.5454 29.5454 38.7271 29.5454 50C29.5454 61.2729 38.7271 70.4546 50 70.4546C61.2729 70.4546 70.4546 61.2729 70.4546 50C70.4546 38.7271 61.2729 29.5454 50 29.5454Z" fill="#F1E8DE"/>
</svg>
