<svg width="100" height="100" viewBox="0 0 100 100" fill="none" xmlns="http://www.w3.org/2000/svg">
<path d="M90.9091 0H9.09091C4.06817 0 0 4.06817 0 9.09091V90.9091C0 95.9317 4.06817 100 9.09091 100H90.9091C95.9317 100 100 95.9317 100 90.9091V9.09091C100 4.06817 95.9317 0 90.9091 0ZM31.6091 81.8183H18.2V38.6729H31.6091V81.8183ZM24.7682 32.5046C20.4455 32.5046 16.95 29 16.95 24.6864C16.95 20.3727 20.45 16.8727 24.7682 16.8727C29.0771 16.8727 32.5817 20.3773 32.5817 24.6864C32.5817 29 29.0771 32.5046 24.7682 32.5046ZM81.8363 81.8183H68.4363V60.8363C68.4363 55.8317 68.3454 49.3954 61.4683 49.3954C54.4909 49.3954 53.4183 54.8454 53.4183 60.4729V81.8183H40.0183V38.6729H52.8817V44.5683H53.0637C54.8546 41.1771 59.2271 37.6 65.75 37.6C79.3271 37.6 81.8363 46.5363 81.8363 58.1546V81.8183Z" fill="#F1E8DE"/>
</svg>
