<svg width="100" height="82" viewBox="0 0 100 82" fill="none" xmlns="http://www.w3.org/2000/svg">
<path d="M100 10.3533C96.3137 11.99 92.3623 13.0889 88.2083 13.5877C92.448 11.047 95.7057 7.02546 97.2331 2.24017C93.274 4.58606 88.8706 6.29286 84.2023 7.21251C80.4614 3.22217 75.1306 0.736 69.2309 0.736C57.8989 0.736 48.7103 9.91689 48.7103 21.2488C48.7103 22.8543 48.8971 24.4208 49.248 25.925C32.1954 25.0677 17.0836 16.9 6.95971 4.48474C5.19054 7.52426 4.18517 11.047 4.18517 14.8035C4.18517 21.9191 7.80143 28.2007 13.3115 31.8871C9.94466 31.778 6.78046 30.8506 4.01371 29.3151C4.01371 29.4009 4.01371 29.4866 4.01371 29.5723C4.01371 39.5171 11.0903 47.8017 20.4661 49.6954C18.7515 50.1631 16.9355 50.4126 15.0651 50.4126C13.7402 50.4126 12.4542 50.288 11.1994 50.0386C13.8181 58.1829 21.3935 64.1294 30.364 64.2931C23.3497 69.7954 14.5039 73.0686 4.8866 73.0686C3.22657 73.0686 1.59769 72.9751 0 72.7803C9.07177 78.61 19.8581 82 31.4471 82C69.184 82 89.8214 50.74 89.8214 23.6337C89.8214 22.7452 89.7983 21.8489 89.7669 20.9761C93.7729 18.0846 97.2489 14.4684 100 10.3533Z" fill="#F1E8DE"/>
</svg>
