<svg width="50" height="50" viewBox="0 0 50 50" fill="none" xmlns="http://www.w3.org/2000/svg">
<path d="M24.9721 0.000217595C24.4996 0.00760368 24.0493 0.202156 23.7201 0.541175C23.3909 0.880194 23.2096 1.33598 23.2161 1.80851V7.1602C23.2128 7.39659 23.2564 7.63129 23.3446 7.85065C23.4327 8.07001 23.5636 8.26967 23.7296 8.43802C23.8956 8.60636 24.0933 8.74004 24.3114 8.83128C24.5295 8.92252 24.7636 8.96951 25 8.96951C25.2364 8.96951 25.4705 8.92252 25.6886 8.83128C25.9067 8.74004 26.1044 8.60636 26.2704 8.43802C26.4364 8.26967 26.5673 8.07001 26.6554 7.85065C26.7436 7.63129 26.7872 7.39659 26.7839 7.1602V1.80851C26.7872 1.56984 26.7425 1.33294 26.6526 1.11185C26.5626 0.890749 26.4292 0.689947 26.2603 0.521331C26.0914 0.352714 25.8903 0.219713 25.669 0.130202C25.4478 0.0406905 25.2108 -0.00351006 24.9721 0.000217595ZM8.58255 6.80133C8.22797 6.80212 7.88167 6.90854 7.58784 7.10702C7.29402 7.3055 7.066 7.58704 6.93289 7.91569C6.79979 8.24434 6.76763 8.6052 6.84053 8.9522C6.91343 9.29921 7.08808 9.61662 7.34218 9.86393L11.126 13.6477C11.2904 13.8189 11.4873 13.9556 11.7051 14.0498C11.923 14.144 12.1575 14.1937 12.3948 14.1961C12.6321 14.1985 12.8675 14.1536 13.0873 14.0638C13.307 13.9741 13.5066 13.8415 13.6745 13.6737C13.8423 13.5058 13.9749 13.3062 14.0646 13.0865C14.1544 12.8667 14.1993 12.6313 14.1969 12.394C14.1945 12.1567 14.1448 11.9222 14.0506 11.7043C13.9564 11.4865 13.8197 11.2896 13.6485 11.1252L9.86473 7.34138C9.69808 7.17007 9.49871 7.03399 9.27845 6.94122C9.0582 6.84845 8.82155 6.80088 8.58255 6.80133V6.80133ZM41.3617 6.80133C40.8982 6.81514 40.4584 7.00884 40.1353 7.34138L36.3515 11.1252C36.1803 11.2896 36.0436 11.4865 35.9494 11.7043C35.8553 11.9222 35.8055 12.1567 35.8031 12.394C35.8007 12.6313 35.8457 12.8667 35.9354 13.0865C36.0251 13.3062 36.1577 13.5058 36.3256 13.6736C36.4934 13.8415 36.693 13.9741 36.9127 14.0638C37.1325 14.1535 37.3679 14.1985 37.6052 14.1961C37.8425 14.1937 38.077 14.1439 38.2949 14.0498C38.5127 13.9556 38.7096 13.8189 38.874 13.6477L42.6578 9.86393C42.9156 9.61336 43.0917 9.29075 43.1629 8.9384C43.2342 8.58604 43.1974 8.22037 43.0573 7.88931C42.9172 7.55824 42.6803 7.27722 42.3778 7.08308C42.0752 6.88894 41.721 6.79074 41.3617 6.80133ZM25 12.5119C21.6882 12.5119 18.512 13.8275 16.1701 16.1693C13.8283 18.5112 12.5127 21.6874 12.5127 24.9992C12.5127 28.311 13.8283 31.4872 16.1701 33.829C18.512 36.1709 21.6882 37.4865 25 37.4865C28.3118 37.4865 31.488 36.1709 33.8299 33.829C36.1717 31.4872 37.4873 28.311 37.4873 24.9992C37.4873 21.6874 36.1717 18.5112 33.8299 16.1693C31.488 13.8275 28.3118 12.5119 25 12.5119V12.5119ZM1.80931 23.2153C1.57292 23.212 1.33822 23.2556 1.11886 23.3438C0.899498 23.4319 0.699842 23.5628 0.531496 23.7288C0.36315 23.8948 0.229471 24.0925 0.138229 24.3106C0.0469865 24.5287 0 24.7628 0 24.9992C0 25.2356 0.0469865 25.4697 0.138229 25.6878C0.229471 25.9059 0.36315 26.1036 0.531496 26.2696C0.699842 26.4356 0.899498 26.5665 1.11886 26.6546C1.33822 26.7428 1.57292 26.7864 1.80931 26.7831H7.16101C7.39739 26.7864 7.63209 26.7428 7.85145 26.6546C8.07081 26.5665 8.27047 26.4356 8.43882 26.2696C8.60716 26.1036 8.74084 25.9059 8.83208 25.6878C8.92333 25.4697 8.97031 25.2356 8.97031 24.9992C8.97031 24.7628 8.92333 24.5287 8.83208 24.3106C8.74084 24.0925 8.60716 23.8948 8.43882 23.7288C8.27047 23.5628 8.07081 23.4319 7.85145 23.3438C7.63209 23.2556 7.39739 23.212 7.16101 23.2153H1.80931ZM42.839 23.2153C42.6026 23.212 42.3679 23.2556 42.1485 23.3438C41.9292 23.4319 41.7295 23.5628 41.5612 23.7288C41.3928 23.8948 41.2592 24.0925 41.1679 24.3106C41.0767 24.5287 41.0297 24.7628 41.0297 24.9992C41.0297 25.2356 41.0767 25.4697 41.1679 25.6878C41.2592 25.9059 41.3928 26.1036 41.5612 26.2696C41.7295 26.4356 41.9292 26.5665 42.1485 26.6546C42.3679 26.7428 42.6026 26.7864 42.839 26.7831H48.1907C48.4271 26.7864 48.6618 26.7428 48.8811 26.6546C49.1005 26.5665 49.3002 26.4356 49.4685 26.2696C49.6369 26.1036 49.7705 25.9059 49.8618 25.6878C49.953 25.4697 50 25.2356 50 24.9992C50 24.7628 49.953 24.5287 49.8618 24.3106C49.7705 24.0925 49.6369 23.8948 49.4685 23.7288C49.3002 23.5628 49.1005 23.4319 48.8811 23.3438C48.6618 23.2556 48.4271 23.212 48.1907 23.2153H42.839ZM12.3524 35.8106C11.889 35.8244 11.4491 36.0181 11.126 36.3507L7.34218 40.1345C7.17098 40.2988 7.0343 40.4957 6.94014 40.7136C6.84598 40.9315 6.79624 41.1659 6.79383 41.4033C6.79141 41.6406 6.83638 41.876 6.92609 42.0957C7.0158 42.3155 7.14845 42.5151 7.31628 42.6829C7.4841 42.8507 7.68373 42.9834 7.90346 43.0731C8.12319 43.1628 8.35862 43.2078 8.59595 43.2054C8.83327 43.203 9.06774 43.1532 9.2856 43.0591C9.50346 42.9649 9.70035 42.8282 9.86473 42.657L13.6485 38.8732C13.9063 38.6226 14.0824 38.3 14.1537 37.9477C14.225 37.5953 14.1881 37.2296 14.048 36.8986C13.9079 36.5675 13.6711 36.2865 13.3685 36.0924C13.0659 35.8982 12.7118 35.8 12.3524 35.8106ZM37.5953 35.8106C37.2404 35.8107 36.8936 35.9166 36.5993 36.1148C36.3049 36.3131 36.0764 36.5946 35.9428 36.9233C35.8093 37.2521 35.7768 37.6133 35.8496 37.9606C35.9224 38.308 36.0971 38.6257 36.3515 38.8732L40.1353 42.657C40.2997 42.8282 40.4965 42.9649 40.7144 43.0591C40.9323 43.1532 41.1667 43.203 41.4041 43.2054C41.6414 43.2078 41.8768 43.1628 42.0965 43.0731C42.3163 42.9834 42.5159 42.8507 42.6837 42.6829C42.8515 42.5151 42.9842 42.3155 43.0739 42.0957C43.1636 41.876 43.2086 41.6406 43.2062 41.4032C43.2038 41.1659 43.154 40.9315 43.0599 40.7136C42.9657 40.4957 42.829 40.2989 42.6578 40.1345L38.874 36.3507C38.7078 36.1798 38.509 36.0439 38.2893 35.9512C38.0697 35.8584 37.8337 35.8106 37.5953 35.8106V35.8106ZM24.9721 41.0299C24.4996 41.0373 24.0493 41.2318 23.7201 41.5709C23.3909 41.9099 23.2096 42.3657 23.2161 42.8382V48.1899C23.2128 48.4263 23.2564 48.661 23.3446 48.8803C23.4327 49.0997 23.5636 49.2994 23.7296 49.4677C23.8956 49.636 24.0933 49.7697 24.3114 49.861C24.5295 49.9522 24.7636 49.9992 25 49.9992C25.2364 49.9992 25.4705 49.9522 25.6886 49.861C25.9067 49.7697 26.1044 49.636 26.2704 49.4677C26.4364 49.2994 26.5673 49.0997 26.6554 48.8803C26.7436 48.661 26.7872 48.4263 26.7839 48.1899V42.8382C26.7872 42.5995 26.7425 42.3626 26.6526 42.1415C26.5626 41.9204 26.4292 41.7196 26.2603 41.551C26.0914 41.3824 25.8903 41.2494 25.669 41.1599C25.4478 41.0704 25.2108 41.0262 24.9721 41.0299V41.0299Z" fill="black"/>
</svg>
