<svg width="200" height="200" viewBox="0 0 200 200" fill="none" xmlns="http://www.w3.org/2000/svg">
<path d="M100 100C100 200 100 200 100 200C44.7715 200 0 155.228 0 100C0 44.7715 44.7715 0 100 0C100 0 100 0 100 100Z" fill="#2F2F2F"/>
<path d="M100 100C100 200 100 200 100 200C155.228 200 200 155.228 200 100C200 44.7715 155.228 0 100 0C100 0 100 0 100 100Z" fill="#2F2F2F"/>
<path d="M100 100C100 180 100 180 100 180C55.8172 180 20 144.183 20 100C20 55.8172 55.8172 20 100 20C100 20 100 20 100 100Z" fill="#C4C4C4"/>
</svg>
