<svg width="46" height="28" viewBox="0 0 46 28" fill="none" xmlns="http://www.w3.org/2000/svg">
<path d="M26 1H37C39.7614 1 42 3.23858 42 6V22C42 24.7614 39.7614 27 37 27H26V1Z" fill="#6F6F6F"/>
<path d="M43 9V9C44.6569 9 46 10.3431 46 12V17C46 18.6569 44.6569 20 43 20V20V9Z" fill="#6F6F6F"/>
<path d="M38 27L5 27C2.23858 27 0 24.7614 0 22V6C0 3.23858 2.23858 1 5 1L38 1V27Z" fill="white"/>
<path d="M11.5625 19.4336H11.7852C12.7227 19.4336 13.5273 19.3203 14.1992 19.0938C14.8789 18.8594 15.4375 18.5234 15.875 18.0859C16.3125 17.6484 16.6367 17.1133 16.8477 16.4805C17.0586 15.8398 17.1641 15.1133 17.1641 14.3008V11.0664C17.1641 10.4492 17.1016 9.90625 16.9766 9.4375C16.8594 8.96875 16.6875 8.58203 16.4609 8.27734C16.2422 7.96484 15.9844 7.73047 15.6875 7.57422C15.3984 7.41797 15.0781 7.33984 14.7266 7.33984C14.3516 7.33984 14.0195 7.43359 13.7305 7.62109C13.4414 7.80078 13.1953 8.04688 12.9922 8.35938C12.7969 8.67188 12.6445 9.03125 12.5352 9.4375C12.4336 9.83594 12.3828 10.2539 12.3828 10.6914C12.3828 11.1289 12.4336 11.5469 12.5352 11.9453C12.6367 12.3359 12.7891 12.6836 12.9922 12.9883C13.1953 13.2852 13.4492 13.5234 13.7539 13.7031C14.0586 13.875 14.418 13.9609 14.832 13.9609C15.2305 13.9609 15.5859 13.8867 15.8984 13.7383C16.2188 13.582 16.4883 13.3789 16.707 13.1289C16.9336 12.8789 17.1055 12.6016 17.2227 12.2969C17.3477 11.9922 17.4102 11.6836 17.4102 11.3711L18.5234 11.9805C18.5234 12.5273 18.4062 13.0664 18.1719 13.5977C17.9375 14.1289 17.6094 14.6133 17.1875 15.0508C16.7734 15.4805 16.293 15.8242 15.7461 16.082C15.1992 16.3398 14.6133 16.4688 13.9883 16.4688C13.1914 16.4688 12.4844 16.3242 11.8672 16.0352C11.25 15.7383 10.7266 15.332 10.2969 14.8164C9.875 14.293 9.55469 13.6836 9.33594 12.9883C9.11719 12.293 9.00781 11.5391 9.00781 10.7266C9.00781 9.89844 9.14062 9.12109 9.40625 8.39453C9.67969 7.66797 10.0664 7.02734 10.5664 6.47266C11.0742 5.91797 11.6797 5.48438 12.3828 5.17188C13.0938 4.85156 13.8828 4.69141 14.75 4.69141C15.6172 4.69141 16.4062 4.85937 17.1172 5.19531C17.8281 5.53125 18.4375 6.00781 18.9453 6.625C19.4531 7.23438 19.8438 7.96484 20.1172 8.81641C20.3984 9.66797 20.5391 10.6133 20.5391 11.6523V12.8242C20.5391 13.9336 20.418 14.9648 20.1758 15.918C19.9414 16.8711 19.5859 17.7344 19.1094 18.5078C18.6406 19.2734 18.0547 19.9297 17.3516 20.4766C16.6562 21.0234 15.8477 21.4414 14.9258 21.7305C14.0039 22.0195 12.9727 22.1641 11.832 22.1641H11.5625V19.4336ZM34.625 19.3633V22H22.9531V19.75L28.4727 13.832C29.0273 13.2148 29.4648 12.6719 29.7852 12.2031C30.1055 11.7266 30.3359 11.3008 30.4766 10.9258C30.625 10.543 30.6992 10.1797 30.6992 9.83594C30.6992 9.32031 30.6133 8.87891 30.4414 8.51172C30.2695 8.13672 30.0156 7.84766 29.6797 7.64453C29.3516 7.44141 28.9453 7.33984 28.4609 7.33984C27.9453 7.33984 27.5 7.46484 27.125 7.71484C26.7578 7.96484 26.4766 8.3125 26.2812 8.75781C26.0938 9.20312 26 9.70703 26 10.2695H22.6133C22.6133 9.25391 22.8555 8.32422 23.3398 7.48047C23.8242 6.62891 24.5078 5.95313 25.3906 5.45312C26.2734 4.94531 27.3203 4.69141 28.5312 4.69141C29.7266 4.69141 30.7344 4.88672 31.5547 5.27734C32.3828 5.66016 33.0078 6.21484 33.4297 6.94141C33.8594 7.66016 34.0742 8.51953 34.0742 9.51953C34.0742 10.082 33.9844 10.6328 33.8047 11.1719C33.625 11.7031 33.3672 12.2344 33.0312 12.7656C32.7031 13.2891 32.3047 13.8203 31.8359 14.3594C31.3672 14.8984 30.8477 15.457 30.2773 16.0352L27.3125 19.3633H34.625Z" fill="black"/>
</svg>
